HIERARCHY
ROOT Root
{
  OFFSET 0.0 0.0 0.0
  CHANNELS 6 Xposition Yposition Zposition Zrotation Yrotation Xrotation
  JOINT Hips
  {
    OFFSET 0.0 100.0 0.0
    CHANNELS 6 Xposition Yposition Zposition Zrotation Yrotation Xrotation
    JOINT Spine1
    {
      OFFSET 5.003913 -0.037094 -0.013727
      CHANNELS 3 Zrotation Yrotation Xrotation
      JOINT Spine2
      {
        OFFSET 7.125363 -1e-06 0.0
        CHANNELS 3 Zrotation Yrotation Xrotation
        JOINT Chest
        {
          OFFSET 7.594027 1e-06 0.0
          CHANNELS 3 Zrotation Yrotation Xrotation
          JOINT Neck1
          {
            OFFSET 26.313086 -0.460272 -0.181672
            CHANNELS 3 Zrotation Yrotation Xrotation
            JOINT Neck2
            {
              OFFSET 8.045911 0.0 0.0
              CHANNELS 3 Zrotation Yrotation Xrotation
              JOINT Head
              {
                OFFSET 6.432774 0.0 0.0
                CHANNELS 3 Zrotation Yrotation Xrotation
                JOINT HeadEnd
                {
                  OFFSET 16.169773 0.06451 0.00362
                  CHANNELS 3 Zrotation Yrotation Xrotation
                }
                JOINT Jaw
                {
                  OFFSET 0.108741 3.12938 0.002639
                  CHANNELS 3 Zrotation Yrotation Xrotation
                }
                JOINT LeftEye
                {
                  OFFSET 4.45173 8.166359 3.206392
                  CHANNELS 3 Zrotation Yrotation Xrotation
                }
                JOINT RightEye
                {
                  OFFSET 4.436895 8.135758 -3.222429
                  CHANNELS 3 Zrotation Yrotation Xrotation
                }
              }
            }
          }
          JOINT LeftShoulder
          {
            OFFSET 23.218927 5.195579 1.621656
            CHANNELS 3 Zrotation Yrotation Xrotation
            JOINT LeftArm
            {
              OFFSET 15.902118 2e-06 -2e-06
              CHANNELS 3 Zrotation Yrotation Xrotation
              JOINT LeftForeArm
              {
                OFFSET 28.739307 0.0 -1e-06
                CHANNELS 3 Zrotation Yrotation Xrotation
                JOINT LeftHand
                {
                  OFFSET 27.093981 -4e-06 0.0
                  CHANNELS 3 Zrotation Yrotation Xrotation
                  JOINT LeftHandThumb1
                  {
                    OFFSET 2.276781 3.380274 0.83384
                    CHANNELS 3 Zrotation Yrotation Xrotation
                    JOINT LeftHandThumb2
                    {
                      OFFSET 4.705309 -1e-06 -1e-06
                      CHANNELS 3 Zrotation Yrotation Xrotation
                      JOINT LeftHandThumb3
                      {
                        OFFSET 2.798515 0.0 3e-06
                        CHANNELS 3 Zrotation Yrotation Xrotation
                        JOINT LeftHandThumbEnd
                        {
                          OFFSET 3.180793 4e-06 -4e-06
                          CHANNELS 3 Zrotation Yrotation Xrotation
                        }
                      }
                    }
                  }
                  JOINT LeftHandIndex1
                  {
                    OFFSET 3.247786 2.352677 0.137192
                    CHANNELS 3 Zrotation Yrotation Xrotation
                    JOINT LeftHandIndex2
                    {
                      OFFSET 6.367095 1e-06 0.0
                      CHANNELS 3 Zrotation Yrotation Xrotation
                      JOINT LeftHandIndex3
                      {
                        OFFSET 3.662364 0.0 0.0
                        CHANNELS 3 Zrotation Yrotation Xrotation
                        JOINT LeftHandIndex4
                        {
                          OFFSET 2.329242 4e-06 -4e-06
                          CHANNELS 3 Zrotation Yrotation Xrotation
                          JOINT LeftHandIndexEnd
                          {
                            OFFSET 2.767823 1e-06 0.0
                            CHANNELS 3 Zrotation Yrotation Xrotation
                          }
                        }
                      }
                    }
                  }
                  JOINT LeftHandMiddle1
                  {
                    OFFSET 3.163612 0.945023 -0.406112
                    CHANNELS 3 Zrotation Yrotation Xrotation
                    JOINT LeftHandMiddle2
                    {
                      OFFSET 6.276789 3e-06 0.0
                      CHANNELS 3 Zrotation Yrotation Xrotation
                      JOINT LeftHandMiddle3
                      {
                        OFFSET 4.35652 -1e-06 4e-06
                        CHANNELS 3 Zrotation Yrotation Xrotation
                        JOINT LeftHandMiddle4
                        {
                          OFFSET 2.996877 0.0 8e-06
                          CHANNELS 3 Zrotation Yrotation Xrotation
                          JOINT LeftHandMiddleEnd
                          {
                            OFFSET 2.323256 3e-06 -4e-06
                            CHANNELS 3 Zrotation Yrotation Xrotation
                          }
                        }
                      }
                    }
                  }
                  JOINT LeftHandRing1
                  {
                    OFFSET 2.882606 -0.309162 0.107445
                    CHANNELS 3 Zrotation Yrotation Xrotation
                    JOINT LeftHandRing2
                    {
                      OFFSET 6.033198 0.0 4e-06
                      CHANNELS 3 Zrotation Yrotation Xrotation
                      JOINT LeftHandRing3
                      {
                        OFFSET 4.350578 3e-06 0.0
                        CHANNELS 3 Zrotation Yrotation Xrotation
                        JOINT LeftHandRing4
                        {
                          OFFSET 2.651321 2e-06 -7e-06
                          CHANNELS 3 Zrotation Yrotation Xrotation
                          JOINT LeftHandRingEnd
                          {
                            OFFSET 1.937663 1e-06 -4e-06
                            CHANNELS 3 Zrotation Yrotation Xrotation
                          }
                        }
                      }
                    }
                  }
                  JOINT LeftHandPinky1
                  {
                    OFFSET 2.865315 -1.525436 0.575687
                    CHANNELS 3 Zrotation Yrotation Xrotation
                    JOINT LeftHandPinky2
                    {
                      OFFSET 5.54936 1e-06 -8e-06
                      CHANNELS 3 Zrotation Yrotation Xrotation
                      JOINT LeftHandPinky3
                      {
                        OFFSET 3.070974 0.0 -4e-06
                        CHANNELS 3 Zrotation Yrotation Xrotation
                        JOINT LeftHandPinky4
                        {
                          OFFSET 1.549672 1e-06 0.0
                          CHANNELS 3 Zrotation Yrotation Xrotation
                          JOINT LeftHandPinkyEnd
                          {
                            OFFSET 1.952123 0.0 0.0
                            CHANNELS 3 Zrotation Yrotation Xrotation
                          }
                        }
                      }
                    }
                  }
                }
              }
            }
          }
          JOINT RightShoulder
          {
            OFFSET 23.161716 5.296122 -1.380114
            CHANNELS 3 Zrotation Yrotation Xrotation
            JOINT RightArm
            {
              OFFSET -16.027195 -2e-06 1.1e-05
              CHANNELS 3 Zrotation Yrotation Xrotation
              JOINT RightForeArm
              {
                OFFSET -28.736639 4e-06 2e-06
                CHANNELS 3 Zrotation Yrotation Xrotation
                JOINT RightHand
                {
                  OFFSET -27.133619 6e-06 0.0
                  CHANNELS 3 Zrotation Yrotation Xrotation
                  JOINT RightHandThumb1
                  {
                    OFFSET -2.274328 -3.351035 -0.83067
                    CHANNELS 3 Zrotation Yrotation Xrotation
                    JOINT RightHandThumb2
                    {
                      OFFSET -4.703594 -3e-06 2e-06
                      CHANNELS 3 Zrotation Yrotation Xrotation
                      JOINT RightHandThumb3
                      {
                        OFFSET -2.794935 -4e-06 -3e-06
                        CHANNELS 3 Zrotation Yrotation Xrotation
                        JOINT RightHandThumbEnd
                        {
                          OFFSET -3.183852 4e-06 1e-06
                          CHANNELS 3 Zrotation Yrotation Xrotation
                        }
                      }
                    }
                  }
                  JOINT RightHandIndex1
                  {
                    OFFSET -3.253496 -2.33755 -0.127667
                    CHANNELS 3 Zrotation Yrotation Xrotation
                    JOINT RightHandIndex2
                    {
                      OFFSET -6.344434 0.0 0.0
                      CHANNELS 3 Zrotation Yrotation Xrotation
                      JOINT RightHandIndex3
                      {
                        OFFSET -3.654871 0.0 -8e-06
                        CHANNELS 3 Zrotation Yrotation Xrotation
                        JOINT RightHandIndex4
                        {
                          OFFSET -2.327586 -1e-06 0.0
                          CHANNELS 3 Zrotation Yrotation Xrotation
                          JOINT RightHandIndexEnd
                          {
                            OFFSET -2.770001 3e-06 8e-06
                            CHANNELS 3 Zrotation Yrotation Xrotation
                          }
                        }
                      }
                    }
                  }
                  JOINT RightHandMiddle1
                  {
                    OFFSET -3.168223 -0.944764 0.411762
                    CHANNELS 3 Zrotation Yrotation Xrotation
                    JOINT RightHandMiddle2
                    {
                      OFFSET -6.266691 -1e-06 -4e-06
                      CHANNELS 3 Zrotation Yrotation Xrotation
                      JOINT RightHandMiddle3
                      {
                        OFFSET -4.348901 0.0 0.0
                        CHANNELS 3 Zrotation Yrotation Xrotation
                        JOINT RightHandMiddle4
                        {
                          OFFSET -3.00024 2e-06 -4e-06
                          CHANNELS 3 Zrotation Yrotation Xrotation
                          JOINT RightHandMiddleEnd
                          {
                            OFFSET -2.321477 -4e-06 -4e-06
                            CHANNELS 3 Zrotation Yrotation Xrotation
                          }
                        }
                      }
                    }
                  }
                  JOINT RightHandRing1
                  {
                    OFFSET -2.885654 0.293261 -0.119232
                    CHANNELS 3 Zrotation Yrotation Xrotation
                    JOINT RightHandRing2
                    {
                      OFFSET -6.032835 -1e-06 -4e-06
                      CHANNELS 3 Zrotation Yrotation Xrotation
                      JOINT RightHandRing3
                      {
                        OFFSET -4.33881 0.0 -4e-06
                        CHANNELS 3 Zrotation Yrotation Xrotation
                        JOINT RightHandRing4
                        {
                          OFFSET -2.654903 -4e-06 -4e-06
                          CHANNELS 3 Zrotation Yrotation Xrotation
                          JOINT RightHandRingEnd
                          {
                            OFFSET -1.935122 0.0 4e-06
                            CHANNELS 3 Zrotation Yrotation Xrotation
                          }
                        }
                      }
                    }
                  }
                  JOINT RightHandPinky1
                  {
                    OFFSET -2.866241 1.503904 -0.60527
                    CHANNELS 3 Zrotation Yrotation Xrotation
                    JOINT RightHandPinky2
                    {
                      OFFSET -5.553177 -2e-06 0.0
                      CHANNELS 3 Zrotation Yrotation Xrotation
                      JOINT RightHandPinky3
                      {
                        OFFSET -3.062664 -1e-06 -4e-06
                        CHANNELS 3 Zrotation Yrotation Xrotation
                        JOINT RightHandPinky4
                        {
                          OFFSET -1.546529 2e-06 4e-06
                          CHANNELS 3 Zrotation Yrotation Xrotation
                          JOINT RightHandPinkyEnd
                          {
                            OFFSET -1.952341 0.0 -4e-06
                            CHANNELS 3 Zrotation Yrotation Xrotation
                          }
                        }
                      }
                    }
                  }
                }
              }
            }
          }
        }
      }
    }
    JOINT LeftLeg
    {
      OFFSET -8.443107 2.567604 10.043214
      CHANNELS 3 Zrotation Yrotation Xrotation
      JOINT LeftShin
      {
        OFFSET 43.229198 1e-06 -1e-06
        CHANNELS 3 Zrotation Yrotation Xrotation
        JOINT LeftFoot
        {
          OFFSET 42.298611 1e-06 1e-06
          CHANNELS 3 Zrotation Yrotation Xrotation
          JOINT LeftToeBase
          {
            OFFSET 14.165858 1e-06 0.0
            CHANNELS 3 Zrotation Yrotation Xrotation
            JOINT LeftToeEnd
            {
              OFFSET 6.7141 -0.234461 0.0
              CHANNELS 3 Zrotation Yrotation Xrotation
            }
          }
        }
      }
    }
    JOINT RightLeg
    {
      OFFSET -8.303923 2.592729 -10.047278
      CHANNELS 3 Zrotation Yrotation Xrotation
      JOINT RightShin
      {
        OFFSET -43.369682 0.0 1e-06
        CHANNELS 3 Zrotation Yrotation Xrotation
        JOINT RightFoot
        {
          OFFSET -42.260784 4e-06 2e-06
          CHANNELS 3 Zrotation Yrotation Xrotation
          JOINT RightToeBase
          {
            OFFSET -14.222245 -2e-06 -1e-06
            CHANNELS 3 Zrotation Yrotation Xrotation
            JOINT RightToeEnd
            {
              OFFSET -6.660062 0.232574 -2e-06
              CHANNELS 3 Zrotation Yrotation Xrotation
            }
          }
        }
      }
    }
  }
}
MOTION
Frames: 5
Frame Time: 0.03333333333333333
0.0 0.0 0.0 0.0 -0.0 0.0 -0.667524 97.381699 343.548035 89.99424 5.557786 98.086571 8.480143 3.196352 0.488129 -8.457486 0.478867 1.803825 21.742851 2.356276 0.945324 36.053684 -2.829783 2.048484 -2.763567 -0.959611 -1.934277 -30.952898 -4.15949 -1.49231 5e-06 -1e-06 1e-06 -0.094149 0.0238 0.005506 -0.156628 0.005525 0.015684 -0.130289 0.024638 0.000505 -97.119354 -66.890068 116.930885 20.00215 -47.67437 15.253881 48.814095 -0.690947 0.070445 12.018918 -9.332586 -34.413754 17.636635 -26.322727 52.41119 -19.466661 -14.395594 29.410385 -1e-06 -8.774822 -3e-06 16.189331 -17.743877 5.968323 -0.609777 -1.795654 -3.889327 -4.807089 -11.046809 -2.93785 6e-06 -20.976015 -1e-06 -5.019969 -25.033558 -4.031882 6e-06 -2e-06 -0.0 -10.634533 -5.686971 -3.565589 10.573274 -17.922947 -3.113901 2e-06 -13.821206 1e-06 -0.501777 -31.181501 -4.027014 -12.249281 -60.447079 8.507778 -13.982714 -7.150198 -2.875044 13.772729 -8.401491 -3.21824 0.347733 -34.211544 0.771652 -0.963028 -17.73337 2.621019 -1e-06 -1e-06 -1e-06 -17.346416 -20.095217 -4.201784 21.757557 -1.638375 3.866428 1e-06 -6.338823 0.0 -1.697589 -22.591743 -6.194008 -0.0 -4e-06 -1e-06 86.378273 -85.199883 113.978035 25.548508 -27.951845 9.312737 52.595638 1.24627 1.217004 22.320618 -11.37793 -65.381378 22.182121 -20.3759 49.933327 -16.701813 -16.743528 28.476532 -3e-06 -12.690604 0.0 17.2381 -18.077965 2.38632 -0.105921 -1.513858 -4.275882 -5.039041 -5.612872 -2.953557 5e-06 -11.020525 -2e-06 -6.1113 -15.895334 -3.84047 -0.0 -0.0 1e-06 -10.283373 -5.68029 -4.341838 11.028297 -11.302404 -2.372632 -1.38427 -14.238581 -6.320119 -0.62544 -26.924192 -3.827601 -4.740041 -49.580719 -3.083117 -13.708527 -7.363476 -3.720939 18.141148 -14.052739 -3.242674 4e-06 -18.787266 -0.0 -0.429711 -8.456043 2.555504 0.0 -0.0 1e-06 -15.923536 -20.094482 -5.473584 30.419214 -7.190827 1.735928 1e-06 -8.162927 -1e-06 -1.861903 -22.861471 -6.167942 0.0 -3e-06 -1e-06 158.588821 -3.849123 -4.024551 9.849398 0.105192 -0.038855 -68.188049 -3.93149 -13.40256 -7.969368 1.787597 2.080758 -0.999998 -1e-06 -0.0 8.258158 2.794796 -5.957474 26.263758 -0.092663 0.012413 -88.259041 -2.674612 -1.295138 -5.576705 0.741871 1.709662 -1.000003 -0.0 -0.0 
0.0 0.0 0.0 0.0 -0.0 0.0 -0.18403 97.063301 346.05661 89.744873 5.647312 97.310707 8.294499 3.24118 0.573037 -8.530923 0.528013 2.24291 21.616522 2.228916 1.41588 36.323902 -3.118467 2.000961 -2.770747 -1.007043 -1.785778 -30.825621 -3.759974 -1.658467 6e-06 -0.0 1e-06 -0.102418 0.01828 0.028206 -0.162507 -0.002269 0.04019 -0.136165 0.02192 0.020877 -97.104523 -65.763535 117.10511 17.34515 -48.097595 16.969498 49.016018 -0.714331 0.172246 11.756372 -9.328786 -35.334484 17.636625 -26.322733 52.411205 -19.46666 -14.395598 29.410395 -0.0 -8.774821 -1e-06 16.275211 -17.727566 5.936611 -0.609775 -1.795653 -3.889329 -4.807088 -11.046809 -2.937851 4e-06 -20.976013 -1e-06 -5.019969 -25.033552 -4.031881 7e-06 2e-06 -0.0 -10.634533 -5.686969 -3.565587 10.573275 -17.922947 -3.113901 3e-06 -13.821205 0.0 -0.501778 -31.181498 -4.027013 -12.395433 -60.659607 8.697886 -13.982712 -7.150197 -2.875043 13.772731 -8.401493 -3.218242 0.347733 -34.211544 0.771655 -0.963028 -17.73337 2.62102 -1e-06 -0.0 -1e-06 -17.346416 -20.095217 -4.201784 21.757557 -1.638373 3.866428 2e-06 -6.338824 -1e-06 -1.697587 -22.591742 -6.194005 0.0 -6e-06 -2e-06 96.422752 -85.810997 103.990173 26.158468 -28.400482 9.082849 52.388481 1.181538 1.138657 22.195473 -11.551503 -65.631943 22.182112 -20.375898 49.933319 -16.701818 -16.743532 28.476536 -2e-06 -12.690603 2e-06 17.332928 -18.117348 2.359948 -0.10592 -1.513856 -4.275882 -5.039038 -5.612871 -2.953556 4e-06 -11.020525 -2e-06 -6.111297 -15.895334 -3.840469 -0.0 -2e-06 0.0 -10.283369 -5.68029 -4.341838 11.028295 -11.302405 -2.372635 -1.384268 -14.238583 -6.32012 -0.625439 -26.924191 -3.827601 -4.743584 -49.788013 -3.094406 -13.708526 -7.363476 -3.720938 18.14115 -14.052739 -3.242678 4e-06 -18.787271 -2e-06 -0.429711 -8.456045 2.555504 -0.0 -0.0 0.0 -15.923539 -20.09449 -5.473584 30.419222 -7.190827 1.735924 1e-06 -8.162926 -2e-06 -1.861904 -22.861473 -6.167942 0.0 -3e-06 -0.0 158.392914 -3.750544 -3.798864 8.020541 0.132528 0.008178 -67.751144 -4.191931 -13.593816 -8.066998 1.795109 2.071362 -0.999998 0.0 1e-06 10.604463 2.655457 -6.333707 25.196352 -0.103374 0.025566 -88.235069 -1.603059 -1.466802 -6.240088 0.758428 1.695234 -1.000003 -0.0 -0.0 
0.0 0.0 0.0 0.0 -0.0 0.0 0.436595 96.792503 348.709595 89.495178 5.577003 96.33326 8.005472 3.322761 0.65934 -8.621721 0.596797 2.688609 21.413147 2.048223 1.940498 36.526649 -3.604301 1.980621 -2.790519 -0.974442 -1.667751 -30.550449 -3.414077 -1.728282 6e-06 -0.0 1e-06 -0.105415 0.010977 0.052864 -0.172309 -0.005118 0.062462 -0.151641 0.011306 0.046262 -97.258293 -64.654037 117.480728 14.693974 -48.502029 18.553324 49.548431 -0.680036 0.218209 11.673531 -9.243942 -36.567448 17.636631 -26.322729 52.411198 -19.46666 -14.395597 29.410389 -2e-06 -8.774822 -2e-06 16.368895 -17.718756 5.842949 -0.609777 -1.795654 -3.889329 -4.807089 -11.046813 -2.93785 4e-06 -20.976015 -2e-06 -5.019972 -25.03356 -4.031883 7e-06 -1e-06 0.0 -10.634536 -5.686972 -3.565587 10.573276 -17.922951 -3.113903 2e-06 -13.821209 0.0 -0.501777 -31.181505 -4.027017 -12.388352 -60.780514 8.680051 -13.982714 -7.1502 -2.875042 13.772731 -8.401493 -3.218242 0.347731 -34.211555 0.771654 -0.963028 -17.73337 2.62102 -1e-06 -2e-06 0.0 -17.346422 -20.095221 -4.20178 21.757561 -1.638374 3.866428 0.0 -6.338826 -0.0 -1.697593 -22.591747 -6.194006 1e-06 -5e-06 -2e-06 110.534256 -86.250595 89.824745 26.7391 -28.763149 8.999351 52.264706 1.043817 1.024086 22.195133 -11.82327 -65.588814 22.182123 -20.375898 49.933327 -16.701815 -16.743528 28.476532 -3e-06 -12.690601 -4e-06 17.408495 -18.113239 2.294216 -0.10592 -1.513856 -4.275882 -5.039041 -5.612876 -2.953557 3e-06 -11.020524 -2e-06 -6.111298 -15.895338 -3.840469 -0.0 -1e-06 -1e-06 -10.283371 -5.680288 -4.341839 11.028296 -11.302406 -2.372633 -1.384269 -14.238584 -6.320121 -0.62544 -26.924196 -3.827601 -4.694264 -49.813354 -3.220372 -13.708527 -7.363476 -3.720939 18.141151 -14.052739 -3.242674 5e-06 -18.78727 -2e-06 -0.42971 -8.456045 2.555504 -0.0 0.0 -1e-06 -15.923539 -20.094486 -5.473585 30.419222 -7.190828 1.735929 1e-06 -8.162929 -2e-06 -1.861903 -22.861473 -6.167942 -0.0 -3e-06 -0.0 158.365143 -3.620932 -3.636812 7.115032 0.136143 0.026685 -67.587341 -4.613896 -13.746885 -8.103244 1.769484 2.065847 -0.999999 -1e-06 -0.0 13.064316 2.332873 -6.566036 23.734213 -0.103203 0.033445 -87.64901 -0.394147 -1.797311 -7.153005 0.782958 1.680367 -1.000004 -0.0 -0.0 
0.0 0.0 0.0 0.0 -0.0 0.0 1.193587 96.591087 351.582367 89.254814 5.350378 95.089561 7.665476 3.41435 0.757947 -8.744667 0.672136 3.128009 21.2022 1.825116 2.468764 36.507889 -4.235602 2.066719 -2.704777 -0.857361 -1.517892 -30.276794 -3.180497 -1.635582 4e-06 -1e-06 -0.0 -0.093009 -0.007385 0.11317 -0.171108 -0.006222 0.113896 -0.165496 -0.021783 0.113011 -97.771187 -63.452034 118.173546 12.243141 -48.873627 19.984896 50.115181 -0.644618 0.279325 11.619701 -9.022832 -37.767365 17.636635 -26.322729 52.41119 -19.46666 -14.395597 29.410385 -1e-06 -8.774822 -3e-06 16.516302 -17.684027 5.720924 -0.609777 -1.795654 -3.889327 -4.807088 -11.046811 -2.93785 4e-06 -20.976019 -1e-06 -5.019972 -25.033556 -4.03188 6e-06 -2e-06 -1e-06 -10.634535 -5.686971 -3.565587 10.573275 -17.922947 -3.113901 3e-06 -13.821206 2e-06 -0.501779 -31.181498 -4.027013 -12.13904 -60.836651 8.439997 -13.982716 -7.150198 -2.875042 13.772731 -8.401491 -3.21824 0.347733 -34.211544 0.771655 -0.963027 -17.733366 2.62102 1e-06 1e-06 -0.0 -17.346422 -20.095217 -4.201783 21.757563 -1.638377 3.86643 0.0 -6.338823 1e-06 -1.697591 -22.591743 -6.194007 1e-06 -6e-06 -3e-06 126.817856 -86.56311 73.438942 27.199509 -28.762487 9.179882 52.272861 0.911929 0.982598 22.322672 -12.127558 -65.375427 22.182119 -20.375895 49.933323 -16.701813 -16.74353 28.476534 -3e-06 -12.690603 -2e-06 17.309517 -18.087299 2.234261 -0.10592 -1.513855 -4.275882 -5.039041 -5.612871 -2.953557 6e-06 -11.020525 -3e-06 -6.111296 -15.89533 -3.840472 -0.0 -1e-06 0.0 -10.283371 -5.680288 -4.341839 11.028296 -11.302404 -2.372633 -1.384269 -14.238578 -6.320121 -0.625436 -26.924187 -3.827604 -4.72122 -49.660919 -3.363322 -13.708526 -7.363477 -3.720941 18.141148 -14.052733 -3.242673 6e-06 -18.787266 -2e-06 -0.429711 -8.456043 2.555504 -0.0 1e-06 -1e-06 -15.923536 -20.094481 -5.473588 30.419218 -7.190826 1.735927 2e-06 -8.162922 -1e-06 -1.861902 -22.861467 -6.167942 0.0 -3e-06 -2e-06 158.568497 -3.461569 -3.440734 7.037673 0.130502 0.063532 -67.165352 -5.264729 -13.469697 -8.134061 1.7279 2.068427 -0.999999 -1e-06 -0.0 15.614207 1.747537 -6.780573 22.035931 -0.08658 0.018444 -86.144684 1.083244 -2.247705 -8.187874 0.780918 1.680135 -1.000002 -0.0 -0.0 
0.0 0.0 0.0 0.0 -0.0 0.0 2.054941 96.405945 354.52417 89.15728 4.962036 93.801506 7.177696 3.334674 0.886631 -8.845809 0.746309 3.492131 21.039318 1.670025 2.885946 36.321659 -4.954342 2.15455 -2.731843 -0.738041 -1.328277 -29.788607 -2.89887 -1.405946 5e-06 -0.0 -0.0 -0.087974 0.000295 0.092764 -0.180677 0.011355 0.084858 -0.181498 -0.022897 0.099308 -98.829117 -62.281509 119.332436 10.108345 -49.047947 21.343273 50.415833 -0.563012 0.206847 11.557764 -8.812607 -38.37075 17.636633 -26.322727 52.411194 -19.466663 -14.395596 29.410389 -2e-06 -8.774822 -3e-06 16.56575 -17.775352 5.745087 -0.609776 -1.795654 -3.889329 -4.807087 -11.046813 -2.937853 5e-06 -20.976017 -2e-06 -5.019969 -25.033558 -4.031882 7e-06 -2e-06 -1e-06 -10.634534 -5.686971 -3.565585 10.573277 -17.922955 -3.113903 5e-06 -13.821209 -0.0 -0.501778 -31.181505 -4.027015 -12.125793 -60.876999 8.401921 -13.982715 -7.150198 -2.87504 13.772731 -8.401495 -3.218242 0.347734 -34.211555 0.771653 -0.963028 -17.733372 2.621021 -0.0 -0.0 -1e-06 -17.346418 -20.095219 -4.201779 21.757563 -1.638376 3.866429 0.0 -6.338825 -1e-06 -1.697589 -22.591745 -6.194007 2e-06 -6e-06 -5e-06 140.28096 -86.801506 59.827335 27.510069 -28.295712 9.704375 52.260498 0.953828 0.903168 22.530857 -12.335651 -64.770653 22.182121 -20.375891 49.933323 -16.701815 -16.743528 28.476532 -1e-06 -12.690603 -3e-06 17.205425 -17.997171 2.17959 -0.105918 -1.513855 -4.275881 -5.039042 -5.612869 -2.953556 5e-06 -11.020526 -3e-06 -6.111297 -15.89533 -3.840472 1e-06 -2e-06 0.0 -10.283373 -5.680289 -4.34184 11.028296 -11.302404 -2.372632 -1.38427 -14.238579 -6.320121 -0.625439 -26.924183 -3.827602 -4.635014 -49.465038 -3.453777 -13.708526 -7.363477 -3.72094 18.14115 -14.052739 -3.242675 6e-06 -18.78727 -1e-06 -0.429711 -8.456045 2.555504 -0.0 1e-06 0.0 -15.923536 -20.094482 -5.473585 30.41921 -7.190824 1.735928 2e-06 -8.162925 -1e-06 -1.861901 -22.861469 -6.167945 0.0 -4e-06 -0.0 158.877518 -3.145997 -3.146652 7.832724 0.083817 0.008095 -65.8974 -6.009675 -12.255913 -8.179519 1.66812 2.104608 -0.999998 1e-06 0.0 18.192982 0.848335 -7.224541 20.01564 -0.103238 0.120375 -84.031334 2.738306 -2.728864 -9.585204 0.808967 1.66822 -1.000002 -0.0 0.0 
